<svg xmlns="http://www.w3.org/2000/svg" width="21.556" height="21.551" viewBox="0 0 21.556 21.551">
  <g id="call-new" transform="translate(-0.189 -0.615)">
    <path id="Path_1" data-name="Path 1" d="M4.605,3.4H8.354c.508,0,.664.2.664.7V9.061c0,.508-.2.7-.7.7h-.82c-.273,0-.312.078-.2.312a26.825,26.825,0,0,0,6.013,6.911c.078.039.2.117.273.078a.3.3,0,0,0,.117-.273,2.207,2.207,0,0,0,0-.508.52.52,0,0,1,.469-.547h5.622c.586,0,.742.156.742.742v6.676c0,.547-.2.742-.742.7a22.526,22.526,0,0,1-7.5-1.874,20.939,20.939,0,0,1-8.59-6.911A18.682,18.682,0,0,1,.232,6.25c0-.742-.039-1.484-.039-2.186C.154,3.6.389,3.4.818,3.4ZM14.835,16.831a1.267,1.267,0,0,1-.859,1.249,1.423,1.423,0,0,1-1.445-.351,32.926,32.926,0,0,1-3.709-3.67,30.532,30.532,0,0,1-2.46-3.436A1.221,1.221,0,0,1,7.416,8.71h.469V4.493H1.248v.234c.117.9.156,1.835.351,2.733A18.392,18.392,0,0,0,8.158,18.119a20.867,20.867,0,0,0,9.253,4.334c.7.156,1.406.234,2.108.351V16.87C17.958,16.831,16.436,16.831,14.835,16.831Z" transform="translate(0 -1.698)" fill="#fff"/>
    <path id="Path_2" data-name="Path 2" d="M31.671,15.571v1.6c0,.469-.2.664-.664.664H29.328c-.469,0-.664-.2-.664-.664v-1.6H27.1c-.508,0-.7-.156-.7-.7V13.189a.542.542,0,0,1,.625-.625h1.6V11.2c0-.82.117-.9.9-.9h1.445a.542.542,0,0,1,.625.625v1.6h1.679a.553.553,0,0,1,.586.586v1.874a.553.553,0,0,1-.586.586Zm-1.093,1.171V15.063a.543.543,0,0,1,.547-.586H32.8v-.859H31.124a.518.518,0,0,1-.586-.586V11.354H29.68v1.6a.542.542,0,0,1-.625.625h-1.6v.859h1.523c.547,0,.742.156.742.742V16.7A6.618,6.618,0,0,0,30.578,16.742Z" transform="translate(-15.977 -5.904)" fill="#fff"/>
    <path id="Path_3" data-name="Path 3" d="M37.7,7.442a7.122,7.122,0,0,1-2.265,5.349,1.022,1.022,0,0,1-.508.234.491.491,0,0,1-.469-.351.543.543,0,0,1,.156-.586,8.115,8.115,0,0,0,1.054-1.249,5.927,5.927,0,0,0-4.1-9.058,5.773,5.773,0,0,0-4.217.937.979.979,0,0,1-.273.156.555.555,0,0,1-.625-.234.478.478,0,0,1,.156-.7,13.862,13.862,0,0,1,1.679-.9,6.972,6.972,0,0,1,9.214,5.154A11.18,11.18,0,0,1,37.7,7.442Z" transform="translate(-15.956 0)" fill="#fff"/>
  </g>
</svg>
