<svg xmlns="http://www.w3.org/2000/svg" xmlns:xlink="http://www.w3.org/1999/xlink" width="31.878" height="32.125" viewBox="0 0 31.878 32.125">
  <defs>
    <filter id="Path_7208" x="0" y="0" width="31.878" height="32.125" filterUnits="userSpaceOnUse">
      <feOffset input="SourceAlpha"/>
      <feGaussianBlur stdDeviation="1.5" result="blur"/>
      <feFlood flood-opacity="0.161"/>
      <feComposite operator="in" in2="blur"/>
      <feComposite in="SourceGraphic"/>
    </filter>
    <linearGradient id="linear-gradient" x1="0.5" x2="0.5" y2="1" gradientUnits="objectBoundingBox">
      <stop offset="0" stop-color="#21b84a"/>
      <stop offset="1" stop-color="#1eaf45"/>
    </linearGradient>
  </defs>
  <g id="Group_74" data-name="Group 74" transform="translate(252.49 -5111.291)">
    <g id="Group_73" data-name="Group 73" transform="translate(-251 5112.587)">
      <g id="Group_72" data-name="Group 72" transform="translate(0 0)">
        <rect id="Artboard1" width="29" height="29" fill="none"/>
        <g id="Group_71" data-name="Group 71" transform="translate(3.01 3.204)">
          <g transform="matrix(1, 0, 0, 1, -4.5, -4.5)" filter="url(#Path_7208)">
            <path id="Path_7208-2" data-name="Path 7208" d="M4.328,20.038a11.437,11.437,0,1,1,3.756,3.624L2.5,25.523l1.828-5.485Z" transform="translate(2 2.1)" fill="#f3f3f3" fill-rule="evenodd"/>
          </g>
          <path id="Path_7209" data-name="Path 7209" d="M6.082,18.757A9.164,9.164,0,1,1,8.39,21.022L4.944,22.17Z" transform="translate(-2.115 -2.012)" fill-rule="evenodd" fill="url(#linear-gradient)"/>
        </g>
        <path id="Path_7210" data-name="Path 7210" d="M10.147,15.258A11.629,11.629,0,0,1,7.608,9.382a2.045,2.045,0,0,1,2.2-2.29l.059.006,1.045.281a.457.457,0,0,1,.313.293c.166.494.559,1.653.744,2.2a.456.456,0,0,1-.137.494l-1.033.871a.452.452,0,0,0-.12.533A9.36,9.36,0,0,0,11.953,13.8a9.343,9.343,0,0,0,1.788,1.6.452.452,0,0,0,.547-.029l1.033-.869a.456.456,0,0,1,.511-.052l2.04,1.105a.453.453,0,0,1,.236.358c.035.382.1,1.078.1,1.078l0,.059a2.045,2.045,0,0,1-2.63,1.783A11.622,11.622,0,0,1,10.18,15.3l-.033-.039Z" transform="translate(1.549 1.764)" fill="#f3f3f3" fill-rule="evenodd"/>
      </g>
    </g>
  </g>
</svg>
