<svg xmlns="http://www.w3.org/2000/svg" width="1257.109" height="694.207" viewBox="0 0 1257.109 694.207" style="">
  <g id="Group_38" data-name="Group 38" transform="translate(-199.346 -811.659)">
    <path id="Path_143" data-name="Path 143" d="M118.25,1505.73s-41.46-146.641,59.893-148.884,214.868,29.155,241.22-78.5S555.176,814.108,938.29,899.331s419.6-69.524,427.71-87.466" transform="translate(90)" fill="none" stroke="#cecece" stroke-width="1" stroke-dasharray="3" class="FAUCSDgW_0"></path>
    <path id="location" d="M232.155,195.132c-.29-.409-.584-.814-.874-1.223a45.591,45.591,0,0,1-2.743-4.313,17.22,17.22,0,0,1-1.091-2.377,4.306,4.306,0,0,1-.082-2.747,4.948,4.948,0,0,1,1.721-2.555,4.8,4.8,0,0,1,2.011-.946,4.93,4.93,0,0,1,3.119.326,4.794,4.794,0,0,1,2.3,2.123,4.433,4.433,0,0,1,.4,3.68,18,18,0,0,1-1.517,3.188,52.8,52.8,0,0,1-3.149,4.728c-.026.036-.046.079-.069.115Zm-1.823-9.308A1.838,1.838,0,1,0,232.211,184,1.84,1.84,0,0,0,230.331,185.824Z" transform="translate(185.55 1156.847)" fill="#d7a689" class="FAUCSDgW_1"></path>
    <path id="Ellipse_4" data-name="Ellipse 4" transform="translate(415 1354)" fill="#d7a689" d="M0,2.5A2.5,2.5 0,1,1 5,2.5A2.5,2.5 0,1,1 0,2.5" class="FAUCSDgW_2"></path>
    <path id="location-2" data-name="location" d="M232.155,195.132c-.29-.409-.584-.814-.874-1.223a45.591,45.591,0,0,1-2.743-4.313,17.22,17.22,0,0,1-1.091-2.377,4.306,4.306,0,0,1-.082-2.747,4.948,4.948,0,0,1,1.721-2.555,4.8,4.8,0,0,1,2.011-.946,4.93,4.93,0,0,1,3.119.326,4.794,4.794,0,0,1,2.3,2.123,4.433,4.433,0,0,1,.4,3.68,18,18,0,0,1-1.517,3.188,52.8,52.8,0,0,1-3.149,4.728c-.026.036-.046.079-.069.115Zm-1.823-9.308A1.838,1.838,0,1,0,232.211,184,1.84,1.84,0,0,0,230.331,185.824Z" transform="translate(672.55 685.896)" fill="#d7a689" class="FAUCSDgW_3"></path>
    <path id="Ellipse_5" data-name="Ellipse 5" transform="translate(902 883.049)" fill="#d7a689" d="M0,2.5A2.5,2.5 0,1,1 5,2.5A2.5,2.5 0,1,1 0,2.5" class="FAUCSDgW_4"></path>
    <path id="location-3" data-name="location" d="M232.155,195.132c-.29-.409-.584-.814-.874-1.223a45.591,45.591,0,0,1-2.743-4.313,17.22,17.22,0,0,1-1.091-2.377,4.306,4.306,0,0,1-.082-2.747,4.948,4.948,0,0,1,1.721-2.555,4.8,4.8,0,0,1,2.011-.946,4.93,4.93,0,0,1,3.119.326,4.794,4.794,0,0,1,2.3,2.123,4.433,4.433,0,0,1,.4,3.68,18,18,0,0,1-1.517,3.188,52.8,52.8,0,0,1-3.149,4.728c-.026.036-.046.079-.069.115Zm-1.823-9.308A1.838,1.838,0,1,0,232.211,184,1.84,1.84,0,0,0,230.331,185.824Z" transform="translate(1106.55 711.497)" fill="#d7a689" class="FAUCSDgW_5"></path>
    <path id="Ellipse_6" data-name="Ellipse 6" transform="translate(1336 908.65)" fill="#d7a689" d="M0,2.5A2.5,2.5 0,1,1 5,2.5A2.5,2.5 0,1,1 0,2.5" class="FAUCSDgW_6"></path>
  </g>
<style data-made-with="vivus-instant">.FAUCSDgW_0{stroke-dasharray:1669 1671;stroke-dashoffset:1670;animation:FAUCSDgW_draw_0 7600ms linear 0ms infinite,FAUCSDgW_fade 7600ms linear 0ms infinite;}.FAUCSDgW_1{stroke-dasharray:49 51;stroke-dashoffset:50;animation:FAUCSDgW_draw_1 7600ms linear 0ms infinite,FAUCSDgW_fade 7600ms linear 0ms infinite;}.FAUCSDgW_2{stroke-dasharray:16 18;stroke-dashoffset:17;animation:FAUCSDgW_draw_2 7600ms linear 0ms infinite,FAUCSDgW_fade 7600ms linear 0ms infinite;}.FAUCSDgW_3{stroke-dasharray:49 51;stroke-dashoffset:50;animation:FAUCSDgW_draw_3 7600ms linear 0ms infinite,FAUCSDgW_fade 7600ms linear 0ms infinite;}.FAUCSDgW_4{stroke-dasharray:16 18;stroke-dashoffset:17;animation:FAUCSDgW_draw_4 7600ms linear 0ms infinite,FAUCSDgW_fade 7600ms linear 0ms infinite;}.FAUCSDgW_5{stroke-dasharray:49 51;stroke-dashoffset:50;animation:FAUCSDgW_draw_5 7600ms linear 0ms infinite,FAUCSDgW_fade 7600ms linear 0ms infinite;}.FAUCSDgW_6{stroke-dasharray:16 18;stroke-dashoffset:17;animation:FAUCSDgW_draw_6 7600ms linear 0ms infinite,FAUCSDgW_fade 7600ms linear 0ms infinite;}@keyframes FAUCSDgW_draw{100%{stroke-dashoffset:0;}}@keyframes FAUCSDgW_fade{0%{stroke-opacity:1;}93.42105263157895%{stroke-opacity:1;}100%{stroke-opacity:0;}}@keyframes FAUCSDgW_draw_0{1.3157894736842104%{stroke-dashoffset: 1670}60.03755379898169%{ stroke-dashoffset: 0;}100%{ stroke-dashoffset: 0;}}@keyframes FAUCSDgW_draw_1{60.03755379898169%{stroke-dashoffset: 50}61.79569045542772%{ stroke-dashoffset: 0;}100%{ stroke-dashoffset: 0;}}@keyframes FAUCSDgW_draw_2{61.79569045542772%{stroke-dashoffset: 17}62.393456918619364%{ stroke-dashoffset: 0;}100%{ stroke-dashoffset: 0;}}@keyframes FAUCSDgW_draw_3{62.393456918619364%{stroke-dashoffset: 50}64.1515935750654%{ stroke-dashoffset: 0;}100%{ stroke-dashoffset: 0;}}@keyframes FAUCSDgW_draw_4{64.1515935750654%{stroke-dashoffset: 17}64.74936003825704%{ stroke-dashoffset: 0;}100%{ stroke-dashoffset: 0;}}@keyframes FAUCSDgW_draw_5{64.74936003825705%{stroke-dashoffset: 50}66.5074966947031%{ stroke-dashoffset: 0;}100%{ stroke-dashoffset: 0;}}@keyframes FAUCSDgW_draw_6{66.5074966947031%{stroke-dashoffset: 17}67.10526315789474%{ stroke-dashoffset: 0;}100%{ stroke-dashoffset: 0;}}</style></svg>
