<svg xmlns="http://www.w3.org/2000/svg" width="22.545" height="21.517" viewBox="0 0 22.545 21.517">
  <path id="whatsapp-svgrepo-com_2_" data-name="whatsapp-svgrepo-com (2)" d="M3.622,12.259a8.813,8.813,0,0,1,8.913-8.709,8.813,8.813,0,0,1,8.913,8.709,8.813,8.813,0,0,1-8.913,8.709,9.018,9.018,0,0,1-4.763-1.346,1.07,1.07,0,0,0-.861-.116l-3.019.88,1.137-2.6a1,1,0,0,0-.073-.943A8.518,8.518,0,0,1,3.622,12.259ZM12.535,1.5A10.887,10.887,0,0,0,1.524,12.259a10.523,10.523,0,0,0,1.368,5.2L1.084,21.59a1.007,1.007,0,0,0,.182,1.085,1.064,1.064,0,0,0,1.082.3L7.067,21.6a11.163,11.163,0,0,0,5.468,1.419,10.887,10.887,0,0,0,11.01-10.759A10.887,10.887,0,0,0,12.535,1.5Zm2.4,12.995-1.378.948a9.771,9.771,0,0,1-2.075-1.56,10.483,10.483,0,0,1-1.7-2.166l.876-.726a1.009,1.009,0,0,0,.247-1.262L9.79,7.679a1.047,1.047,0,0,0-.736-.526,1.066,1.066,0,0,0-.879.236l-.331.282a2.689,2.689,0,0,0-.876,2.922A12.3,12.3,0,0,0,10,15.332a11.032,11.032,0,0,0,4.963,2.874,2.749,2.749,0,0,0,2.378-.561l.62-.494a1.012,1.012,0,0,0-.126-1.675l-1.76-1.025A1.069,1.069,0,0,0,14.939,14.495Z" transform="translate(-1 -1.5)" fill="#5e5e5e" fill-rule="evenodd"/>
</svg>
