<svg xmlns="http://www.w3.org/2000/svg" width="20.797" height="20.799" viewBox="0 0 20.797 20.799">
  <path id="one" d="M17.354,22.232a21.726,21.726,0,0,1-9.9-5.682,21.726,21.726,0,0,1-5.682-9.9A2.764,2.764,0,0,1,2.889,3.73L5.217,2.067a3,3,0,0,1,4.21.734l1.466,2.117a2,2,0,0,1-.482,2.766l-1.169.835a8.7,8.7,0,0,0,2.45,3.789,8.7,8.7,0,0,0,3.789,2.45l.835-1.169a2,2,0,0,1,2.766-.482L21.2,14.573a3,3,0,0,1,.734,4.21L20.27,21.111a2.763,2.763,0,0,1-2.916,1.121Zm-8.491-7.1a19.728,19.728,0,0,0,8.977,5.156.767.767,0,0,0,.8-.344L20.3,17.616a1,1,0,0,0-.245-1.4L17.941,14.75,17.041,16a1.791,1.791,0,0,1-1.832.744,10.291,10.291,0,0,1-4.938-3.028A10.291,10.291,0,0,1,7.25,8.784a1.791,1.791,0,0,1,.745-1.832l1.254-.9L7.783,3.939a1,1,0,0,0-1.4-.245L4.051,5.357a.767.767,0,0,0-.343.8,19.728,19.728,0,0,0,5.156,8.979Z" transform="translate(-1.695 -1.508)" fill="#5e5e5e" fill-rule="evenodd"/>
</svg>
